# xmcd
#
# Track frame offsets: 
#        150
#        12680
#        28130
#        42707
#        53640
#        68577
#        86392
#        102202
#        118625
#        131707
#        155017
#        170455
#        187420
#        205255
#        221205
#        235530
#        253830
#        266430
#        284430
#        298605
#
# Disc length: 4193 seconds
#
# Revision: 0
# Processed by: cddbd v1.5.2PL0 Copyright (c) Steve Scherf et al.
# Submitted via: ExactAudioCopy v0.99pb5
#
DISCID=36105f14
DTITLE=Neil Landon - The Best Of Neil Landon
DYEAR=1998
DGENRE=Pop
TTITLE0=Cowboys, Gypsies And Indians
TTITLE1=Power Of The Morning
TTITLE2=Crystal Ball
TTITLE3=Goatman Willy
TTITLE4=Gerimia
TTITLE5=It Took So Long
TTITLE6=(The Air From) Scarborough Fair
TTITLE7=Oh Mary Ann
TTITLE8=Redneck Rendezvous
TTITLE9=Gotta Move Away
TTITLE10=Sweet Lies
TTITLE11=Late Night Tramline
TTITLE12=When The Times Has Come
TTITLE13=Everybody's Talkin'
TTITLE14=Magic Forest
TTITLE15=Jesse James
TTITLE16=Rockin' In Rosalee's Boat
TTITLE17=Runaway
TTITLE18=Stagg-O-Lee
TTITLE19=Personality
EXTD=
EXTT0=
EXTT1=
EXTT2=
EXTT3=
EXTT4=
EXTT5=
EXTT6=
EXTT7=
EXTT8=
EXTT9=
EXTT10=
EXTT11=
EXTT12=
EXTT13=
EXTT14=
EXTT15=
EXTT16=
EXTT17=
EXTT18=
EXTT19=
PLAYORDER=
